<?xml version="1.0" encoding="utf-8" standalone="no"?>
<!DOCTYPE svg PUBLIC "-//W3C//DTD SVG 1.1//EN"
  "http://www.w3.org/Graphics/SVG/1.1/DTD/svg11.dtd">
<svg height="432pt" version="1.1" viewBox="0 0 648 432" width="648pt" xmlns="http://www.w3.org/2000/svg" xmlns:xlink="http://www.w3.org/1999/xlink">
 <metadata>
  <rdf:RDF xmlns:cc="http://creativecommons.org/ns#" xmlns:dc="http://purl.org/dc/elements/1.1/" xmlns:rdf="http://www.w3.org/1999/02/22-rdf-syntax-ns#">
   <cc:Work>
    <dc:type rdf:resource="http://purl.org/dc/dcmitype/StillImage"/>
    <dc:date>2021-10-02T06:53:45.934779</dc:date>
    <dc:format>image/svg+xml</dc:format>
    <dc:creator>
     <cc:Agent>
      <dc:title>Matplotlib v3.4.2, https://matplotlib.org/</dc:title>
     </cc:Agent>
    </dc:creator>
   </cc:Work>
  </rdf:RDF>
 </metadata>
 <defs>
  <style type="text/css">*{stroke-linecap:butt;stroke-linejoin:round;}</style>
 </defs>
 <g id="figure_1">
  <g id="patch_1">
   <path d="M 0 432 
L 648 432 
L 648 0 
L 0 0 
z
" style="fill:#ffffff;"/>
  </g>
  <g id="axes_1">
   <g id="patch_2">
    <path d="M 47.81 390.04 
L 637.2 390.04 
L 637.2 25.44 
L 47.81 25.44 
z
" style="fill:#eefffc;"/>
   </g>
   <g id="matplotlib.axis_1">
    <g id="xtick_1">
     <g id="line2d_1">
      <path clip-path="url(#p69babeaa13)" d="M 73.526689 390.04 
L 73.526689 25.44 
" style="fill:none;stroke:#b0b0b0;stroke-linecap:square;stroke-width:0.8;"/>
     </g>
     <g id="line2d_2">
      <defs>
       <path d="M 0 0 
L 0 3.5 
" id="mcafea7e7f0" style="stroke:#000000;stroke-width:0.8;"/>
      </defs>
      <g>
       <use style="stroke:#000000;stroke-width:0.8;" x="73.526689" xlink:href="#mcafea7e7f0" y="390.04"/>
      </g>
     </g>
     <g id="text_1">
      <!-- 0 -->
      <g transform="translate(70.345439 404.638438)scale(0.1 -0.1)">
       <defs>
        <path d="M 2034 4250 
Q 1547 4250 1301 3770 
Q 1056 3291 1056 2328 
Q 1056 1369 1301 889 
Q 1547 409 2034 409 
Q 2525 409 2770 889 
Q 3016 1369 3016 2328 
Q 3016 3291 2770 3770 
Q 2525 4250 2034 4250 
z
M 2034 4750 
Q 2819 4750 3233 4129 
Q 3647 3509 3647 2328 
Q 3647 1150 3233 529 
Q 2819 -91 2034 -91 
Q 1250 -91 836 529 
Q 422 1150 422 2328 
Q 422 3509 836 4129 
Q 1250 4750 2034 4750 
z
" id="DejaVuSans-30" transform="scale(0.015625)"/>
       </defs>
       <use xlink:href="#DejaVuSans-30"/>
      </g>
     </g>
    </g>
    <g id="xtick_2">
     <g id="line2d_3">
      <path clip-path="url(#p69babeaa13)" d="M 180.90326 390.04 
L 180.90326 25.44 
" style="fill:none;stroke:#b0b0b0;stroke-linecap:square;stroke-width:0.8;"/>
     </g>
     <g id="line2d_4">
      <g>
       <use style="stroke:#000000;stroke-width:0.8;" x="180.90326" xlink:href="#mcafea7e7f0" y="390.04"/>
      </g>
     </g>
     <g id="text_2">
      <!-- 200 -->
      <g transform="translate(171.35951 404.638438)scale(0.1 -0.1)">
       <defs>
        <path d="M 1228 531 
L 3431 531 
L 3431 0 
L 469 0 
L 469 531 
Q 828 903 1448 1529 
Q 2069 2156 2228 2338 
Q 2531 2678 2651 2914 
Q 2772 3150 2772 3378 
Q 2772 3750 2511 3984 
Q 2250 4219 1831 4219 
Q 1534 4219 1204 4116 
Q 875 4013 500 3803 
L 500 4441 
Q 881 4594 1212 4672 
Q 1544 4750 1819 4750 
Q 2544 4750 2975 4387 
Q 3406 4025 3406 3419 
Q 3406 3131 3298 2873 
Q 3191 2616 2906 2266 
Q 2828 2175 2409 1742 
Q 1991 1309 1228 531 
z
" id="DejaVuSans-32" transform="scale(0.015625)"/>
       </defs>
       <use xlink:href="#DejaVuSans-32"/>
       <use x="63.623047" xlink:href="#DejaVuSans-30"/>
       <use x="127.246094" xlink:href="#DejaVuSans-30"/>
      </g>
     </g>
    </g>
    <g id="xtick_3">
     <g id="line2d_5">
      <path clip-path="url(#p69babeaa13)" d="M 288.279831 390.04 
L 288.279831 25.44 
" style="fill:none;stroke:#b0b0b0;stroke-linecap:square;stroke-width:0.8;"/>
     </g>
     <g id="line2d_6">
      <g>
       <use style="stroke:#000000;stroke-width:0.8;" x="288.279831" xlink:href="#mcafea7e7f0" y="390.04"/>
      </g>
     </g>
     <g id="text_3">
      <!-- 400 -->
      <g transform="translate(278.736081 404.638438)scale(0.1 -0.1)">
       <defs>
        <path d="M 2419 4116 
L 825 1625 
L 2419 1625 
L 2419 4116 
z
M 2253 4666 
L 3047 4666 
L 3047 1625 
L 3713 1625 
L 3713 1100 
L 3047 1100 
L 3047 0 
L 2419 0 
L 2419 1100 
L 313 1100 
L 313 1709 
L 2253 4666 
z
" id="DejaVuSans-34" transform="scale(0.015625)"/>
       </defs>
       <use xlink:href="#DejaVuSans-34"/>
       <use x="63.623047" xlink:href="#DejaVuSans-30"/>
       <use x="127.246094" xlink:href="#DejaVuSans-30"/>
      </g>
     </g>
    </g>
    <g id="xtick_4">
     <g id="line2d_7">
      <path clip-path="url(#p69babeaa13)" d="M 395.656403 390.04 
L 395.656403 25.44 
" style="fill:none;stroke:#b0b0b0;stroke-linecap:square;stroke-width:0.8;"/>
     </g>
     <g id="line2d_8">
      <g>
       <use style="stroke:#000000;stroke-width:0.8;" x="395.656403" xlink:href="#mcafea7e7f0" y="390.04"/>
      </g>
     </g>
     <g id="text_4">
      <!-- 600 -->
      <g transform="translate(386.112653 404.638438)scale(0.1 -0.1)">
       <defs>
        <path d="M 2113 2584 
Q 1688 2584 1439 2293 
Q 1191 2003 1191 1497 
Q 1191 994 1439 701 
Q 1688 409 2113 409 
Q 2538 409 2786 701 
Q 3034 994 3034 1497 
Q 3034 2003 2786 2293 
Q 2538 2584 2113 2584 
z
M 3366 4563 
L 3366 3988 
Q 3128 4100 2886 4159 
Q 2644 4219 2406 4219 
Q 1781 4219 1451 3797 
Q 1122 3375 1075 2522 
Q 1259 2794 1537 2939 
Q 1816 3084 2150 3084 
Q 2853 3084 3261 2657 
Q 3669 2231 3669 1497 
Q 3669 778 3244 343 
Q 2819 -91 2113 -91 
Q 1303 -91 875 529 
Q 447 1150 447 2328 
Q 447 3434 972 4092 
Q 1497 4750 2381 4750 
Q 2619 4750 2861 4703 
Q 3103 4656 3366 4563 
z
" id="DejaVuSans-36" transform="scale(0.015625)"/>
       </defs>
       <use xlink:href="#DejaVuSans-36"/>
       <use x="63.623047" xlink:href="#DejaVuSans-30"/>
       <use x="127.246094" xlink:href="#DejaVuSans-30"/>
      </g>
     </g>
    </g>
    <g id="xtick_5">
     <g id="line2d_9">
      <path clip-path="url(#p69babeaa13)" d="M 503.032974 390.04 
L 503.032974 25.44 
" style="fill:none;stroke:#b0b0b0;stroke-linecap:square;stroke-width:0.8;"/>
     </g>
     <g id="line2d_10">
      <g>
       <use style="stroke:#000000;stroke-width:0.8;" x="503.032974" xlink:href="#mcafea7e7f0" y="390.04"/>
      </g>
     </g>
     <g id="text_5">
      <!-- 800 -->
      <g transform="translate(493.489224 404.638438)scale(0.1 -0.1)">
       <defs>
        <path d="M 2034 2216 
Q 1584 2216 1326 1975 
Q 1069 1734 1069 1313 
Q 1069 891 1326 650 
Q 1584 409 2034 409 
Q 2484 409 2743 651 
Q 3003 894 3003 1313 
Q 3003 1734 2745 1975 
Q 2488 2216 2034 2216 
z
M 1403 2484 
Q 997 2584 770 2862 
Q 544 3141 544 3541 
Q 544 4100 942 4425 
Q 1341 4750 2034 4750 
Q 2731 4750 3128 4425 
Q 3525 4100 3525 3541 
Q 3525 3141 3298 2862 
Q 3072 2584 2669 2484 
Q 3125 2378 3379 2068 
Q 3634 1759 3634 1313 
Q 3634 634 3220 271 
Q 2806 -91 2034 -91 
Q 1263 -91 848 271 
Q 434 634 434 1313 
Q 434 1759 690 2068 
Q 947 2378 1403 2484 
z
M 1172 3481 
Q 1172 3119 1398 2916 
Q 1625 2713 2034 2713 
Q 2441 2713 2670 2916 
Q 2900 3119 2900 3481 
Q 2900 3844 2670 4047 
Q 2441 4250 2034 4250 
Q 1625 4250 1398 4047 
Q 1172 3844 1172 3481 
z
" id="DejaVuSans-38" transform="scale(0.015625)"/>
       </defs>
       <use xlink:href="#DejaVuSans-38"/>
       <use x="63.623047" xlink:href="#DejaVuSans-30"/>
       <use x="127.246094" xlink:href="#DejaVuSans-30"/>
      </g>
     </g>
    </g>
    <g id="xtick_6">
     <g id="line2d_11">
      <path clip-path="url(#p69babeaa13)" d="M 610.409545 390.04 
L 610.409545 25.44 
" style="fill:none;stroke:#b0b0b0;stroke-linecap:square;stroke-width:0.8;"/>
     </g>
     <g id="line2d_12">
      <g>
       <use style="stroke:#000000;stroke-width:0.8;" x="610.409545" xlink:href="#mcafea7e7f0" y="390.04"/>
      </g>
     </g>
     <g id="text_6">
      <!-- 1000 -->
      <g transform="translate(597.684545 404.638438)scale(0.1 -0.1)">
       <defs>
        <path d="M 794 531 
L 1825 531 
L 1825 4091 
L 703 3866 
L 703 4441 
L 1819 4666 
L 2450 4666 
L 2450 531 
L 3481 531 
L 3481 0 
L 794 0 
L 794 531 
z
" id="DejaVuSans-31" transform="scale(0.015625)"/>
       </defs>
       <use xlink:href="#DejaVuSans-31"/>
       <use x="63.623047" xlink:href="#DejaVuSans-30"/>
       <use x="127.246094" xlink:href="#DejaVuSans-30"/>
       <use x="190.869141" xlink:href="#DejaVuSans-30"/>
      </g>
     </g>
    </g>
    <g id="text_7">
     <!-- Number of clusters -->
     <g transform="translate(294.812812 418.316562)scale(0.1 -0.1)">
      <defs>
       <path d="M 628 4666 
L 1478 4666 
L 3547 763 
L 3547 4666 
L 4159 4666 
L 4159 0 
L 3309 0 
L 1241 3903 
L 1241 0 
L 628 0 
L 628 4666 
z
" id="DejaVuSans-4e" transform="scale(0.015625)"/>
       <path d="M 544 1381 
L 544 3500 
L 1119 3500 
L 1119 1403 
Q 1119 906 1312 657 
Q 1506 409 1894 409 
Q 2359 409 2629 706 
Q 2900 1003 2900 1516 
L 2900 3500 
L 3475 3500 
L 3475 0 
L 2900 0 
L 2900 538 
Q 2691 219 2414 64 
Q 2138 -91 1772 -91 
Q 1169 -91 856 284 
Q 544 659 544 1381 
z
M 1991 3584 
L 1991 3584 
z
" id="DejaVuSans-75" transform="scale(0.015625)"/>
       <path d="M 3328 2828 
Q 3544 3216 3844 3400 
Q 4144 3584 4550 3584 
Q 5097 3584 5394 3201 
Q 5691 2819 5691 2113 
L 5691 0 
L 5113 0 
L 5113 2094 
Q 5113 2597 4934 2840 
Q 4756 3084 4391 3084 
Q 3944 3084 3684 2787 
Q 3425 2491 3425 1978 
L 3425 0 
L 2847 0 
L 2847 2094 
Q 2847 2600 2669 2842 
Q 2491 3084 2119 3084 
Q 1678 3084 1418 2786 
Q 1159 2488 1159 1978 
L 1159 0 
L 581 0 
L 581 3500 
L 1159 3500 
L 1159 2956 
Q 1356 3278 1631 3431 
Q 1906 3584 2284 3584 
Q 2666 3584 2933 3390 
Q 3200 3197 3328 2828 
z
" id="DejaVuSans-6d" transform="scale(0.015625)"/>
       <path d="M 3116 1747 
Q 3116 2381 2855 2742 
Q 2594 3103 2138 3103 
Q 1681 3103 1420 2742 
Q 1159 2381 1159 1747 
Q 1159 1113 1420 752 
Q 1681 391 2138 391 
Q 2594 391 2855 752 
Q 3116 1113 3116 1747 
z
M 1159 2969 
Q 1341 3281 1617 3432 
Q 1894 3584 2278 3584 
Q 2916 3584 3314 3078 
Q 3713 2572 3713 1747 
Q 3713 922 3314 415 
Q 2916 -91 2278 -91 
Q 1894 -91 1617 61 
Q 1341 213 1159 525 
L 1159 0 
L 581 0 
L 581 4863 
L 1159 4863 
L 1159 2969 
z
" id="DejaVuSans-62" transform="scale(0.015625)"/>
       <path d="M 3597 1894 
L 3597 1613 
L 953 1613 
Q 991 1019 1311 708 
Q 1631 397 2203 397 
Q 2534 397 2845 478 
Q 3156 559 3463 722 
L 3463 178 
Q 3153 47 2828 -22 
Q 2503 -91 2169 -91 
Q 1331 -91 842 396 
Q 353 884 353 1716 
Q 353 2575 817 3079 
Q 1281 3584 2069 3584 
Q 2775 3584 3186 3129 
Q 3597 2675 3597 1894 
z
M 3022 2063 
Q 3016 2534 2758 2815 
Q 2500 3097 2075 3097 
Q 1594 3097 1305 2825 
Q 1016 2553 972 2059 
L 3022 2063 
z
" id="DejaVuSans-65" transform="scale(0.015625)"/>
       <path d="M 2631 2963 
Q 2534 3019 2420 3045 
Q 2306 3072 2169 3072 
Q 1681 3072 1420 2755 
Q 1159 2438 1159 1844 
L 1159 0 
L 581 0 
L 581 3500 
L 1159 3500 
L 1159 2956 
Q 1341 3275 1631 3429 
Q 1922 3584 2338 3584 
Q 2397 3584 2469 3576 
Q 2541 3569 2628 3553 
L 2631 2963 
z
" id="DejaVuSans-72" transform="scale(0.015625)"/>
       <path id="DejaVuSans-20" transform="scale(0.015625)"/>
       <path d="M 1959 3097 
Q 1497 3097 1228 2736 
Q 959 2375 959 1747 
Q 959 1119 1226 758 
Q 1494 397 1959 397 
Q 2419 397 2687 759 
Q 2956 1122 2956 1747 
Q 2956 2369 2687 2733 
Q 2419 3097 1959 3097 
z
M 1959 3584 
Q 2709 3584 3137 3096 
Q 3566 2609 3566 1747 
Q 3566 888 3137 398 
Q 2709 -91 1959 -91 
Q 1206 -91 779 398 
Q 353 888 353 1747 
Q 353 2609 779 3096 
Q 1206 3584 1959 3584 
z
" id="DejaVuSans-6f" transform="scale(0.015625)"/>
       <path d="M 2375 4863 
L 2375 4384 
L 1825 4384 
Q 1516 4384 1395 4259 
Q 1275 4134 1275 3809 
L 1275 3500 
L 2222 3500 
L 2222 3053 
L 1275 3053 
L 1275 0 
L 697 0 
L 697 3053 
L 147 3053 
L 147 3500 
L 697 3500 
L 697 3744 
Q 697 4328 969 4595 
Q 1241 4863 1831 4863 
L 2375 4863 
z
" id="DejaVuSans-66" transform="scale(0.015625)"/>
       <path d="M 3122 3366 
L 3122 2828 
Q 2878 2963 2633 3030 
Q 2388 3097 2138 3097 
Q 1578 3097 1268 2742 
Q 959 2388 959 1747 
Q 959 1106 1268 751 
Q 1578 397 2138 397 
Q 2388 397 2633 464 
Q 2878 531 3122 666 
L 3122 134 
Q 2881 22 2623 -34 
Q 2366 -91 2075 -91 
Q 1284 -91 818 406 
Q 353 903 353 1747 
Q 353 2603 823 3093 
Q 1294 3584 2113 3584 
Q 2378 3584 2631 3529 
Q 2884 3475 3122 3366 
z
" id="DejaVuSans-63" transform="scale(0.015625)"/>
       <path d="M 603 4863 
L 1178 4863 
L 1178 0 
L 603 0 
L 603 4863 
z
" id="DejaVuSans-6c" transform="scale(0.015625)"/>
       <path d="M 2834 3397 
L 2834 2853 
Q 2591 2978 2328 3040 
Q 2066 3103 1784 3103 
Q 1356 3103 1142 2972 
Q 928 2841 928 2578 
Q 928 2378 1081 2264 
Q 1234 2150 1697 2047 
L 1894 2003 
Q 2506 1872 2764 1633 
Q 3022 1394 3022 966 
Q 3022 478 2636 193 
Q 2250 -91 1575 -91 
Q 1294 -91 989 -36 
Q 684 19 347 128 
L 347 722 
Q 666 556 975 473 
Q 1284 391 1588 391 
Q 1994 391 2212 530 
Q 2431 669 2431 922 
Q 2431 1156 2273 1281 
Q 2116 1406 1581 1522 
L 1381 1569 
Q 847 1681 609 1914 
Q 372 2147 372 2553 
Q 372 3047 722 3315 
Q 1072 3584 1716 3584 
Q 2034 3584 2315 3537 
Q 2597 3491 2834 3397 
z
" id="DejaVuSans-73" transform="scale(0.015625)"/>
       <path d="M 1172 4494 
L 1172 3500 
L 2356 3500 
L 2356 3053 
L 1172 3053 
L 1172 1153 
Q 1172 725 1289 603 
Q 1406 481 1766 481 
L 2356 481 
L 2356 0 
L 1766 0 
Q 1100 0 847 248 
Q 594 497 594 1153 
L 594 3053 
L 172 3053 
L 172 3500 
L 594 3500 
L 594 4494 
L 1172 4494 
z
" id="DejaVuSans-74" transform="scale(0.015625)"/>
      </defs>
      <use xlink:href="#DejaVuSans-4e"/>
      <use x="74.804688" xlink:href="#DejaVuSans-75"/>
      <use x="138.183594" xlink:href="#DejaVuSans-6d"/>
      <use x="235.595703" xlink:href="#DejaVuSans-62"/>
      <use x="299.072266" xlink:href="#DejaVuSans-65"/>
      <use x="360.595703" xlink:href="#DejaVuSans-72"/>
      <use x="401.708984" xlink:href="#DejaVuSans-20"/>
      <use x="433.496094" xlink:href="#DejaVuSans-6f"/>
      <use x="494.677734" xlink:href="#DejaVuSans-66"/>
      <use x="529.882812" xlink:href="#DejaVuSans-20"/>
      <use x="561.669922" xlink:href="#DejaVuSans-63"/>
      <use x="616.650391" xlink:href="#DejaVuSans-6c"/>
      <use x="644.433594" xlink:href="#DejaVuSans-75"/>
      <use x="707.8125" xlink:href="#DejaVuSans-73"/>
      <use x="759.912109" xlink:href="#DejaVuSans-74"/>
      <use x="799.121094" xlink:href="#DejaVuSans-65"/>
      <use x="860.644531" xlink:href="#DejaVuSans-72"/>
      <use x="901.757812" xlink:href="#DejaVuSans-73"/>
     </g>
    </g>
   </g>
   <g id="matplotlib.axis_2">
    <g id="ytick_1">
     <g id="line2d_13">
      <path clip-path="url(#p69babeaa13)" d="M 47.81 337.954286 
L 637.2 337.954286 
" style="fill:none;stroke:#b0b0b0;stroke-linecap:square;stroke-width:0.8;"/>
     </g>
     <g id="line2d_14">
      <defs>
       <path d="M 0 0 
L -3.5 0 
" id="mc2ed9f2fda" style="stroke:#000000;stroke-width:0.8;"/>
      </defs>
      <g>
       <use style="stroke:#000000;stroke-width:0.8;" x="47.81" xlink:href="#mc2ed9f2fda" y="337.954286"/>
      </g>
     </g>
     <g id="text_8">
      <!-- 0.1 -->
      <g transform="translate(24.906875 341.753504)scale(0.1 -0.1)">
       <defs>
        <path d="M 684 794 
L 1344 794 
L 1344 0 
L 684 0 
L 684 794 
z
" id="DejaVuSans-2e" transform="scale(0.015625)"/>
       </defs>
       <use xlink:href="#DejaVuSans-30"/>
       <use x="63.623047" xlink:href="#DejaVuSans-2e"/>
       <use x="95.410156" xlink:href="#DejaVuSans-31"/>
      </g>
     </g>
    </g>
    <g id="ytick_2">
     <g id="line2d_15">
      <path clip-path="url(#p69babeaa13)" d="M 47.81 278.765974 
L 637.2 278.765974 
" style="fill:none;stroke:#b0b0b0;stroke-linecap:square;stroke-width:0.8;"/>
     </g>
     <g id="line2d_16">
      <g>
       <use style="stroke:#000000;stroke-width:0.8;" x="47.81" xlink:href="#mc2ed9f2fda" y="278.765974"/>
      </g>
     </g>
     <g id="text_9">
      <!-- 0.2 -->
      <g transform="translate(24.906875 282.565193)scale(0.1 -0.1)">
       <use xlink:href="#DejaVuSans-30"/>
       <use x="63.623047" xlink:href="#DejaVuSans-2e"/>
       <use x="95.410156" xlink:href="#DejaVuSans-32"/>
      </g>
     </g>
    </g>
    <g id="ytick_3">
     <g id="line2d_17">
      <path clip-path="url(#p69babeaa13)" d="M 47.81 219.577662 
L 637.2 219.577662 
" style="fill:none;stroke:#b0b0b0;stroke-linecap:square;stroke-width:0.8;"/>
     </g>
     <g id="line2d_18">
      <g>
       <use style="stroke:#000000;stroke-width:0.8;" x="47.81" xlink:href="#mc2ed9f2fda" y="219.577662"/>
      </g>
     </g>
     <g id="text_10">
      <!-- 0.3 -->
      <g transform="translate(24.906875 223.376881)scale(0.1 -0.1)">
       <defs>
        <path d="M 2597 2516 
Q 3050 2419 3304 2112 
Q 3559 1806 3559 1356 
Q 3559 666 3084 287 
Q 2609 -91 1734 -91 
Q 1441 -91 1130 -33 
Q 819 25 488 141 
L 488 750 
Q 750 597 1062 519 
Q 1375 441 1716 441 
Q 2309 441 2620 675 
Q 2931 909 2931 1356 
Q 2931 1769 2642 2001 
Q 2353 2234 1838 2234 
L 1294 2234 
L 1294 2753 
L 1863 2753 
Q 2328 2753 2575 2939 
Q 2822 3125 2822 3475 
Q 2822 3834 2567 4026 
Q 2313 4219 1838 4219 
Q 1578 4219 1281 4162 
Q 984 4106 628 3988 
L 628 4550 
Q 988 4650 1302 4700 
Q 1616 4750 1894 4750 
Q 2613 4750 3031 4423 
Q 3450 4097 3450 3541 
Q 3450 3153 3228 2886 
Q 3006 2619 2597 2516 
z
" id="DejaVuSans-33" transform="scale(0.015625)"/>
       </defs>
       <use xlink:href="#DejaVuSans-30"/>
       <use x="63.623047" xlink:href="#DejaVuSans-2e"/>
       <use x="95.410156" xlink:href="#DejaVuSans-33"/>
      </g>
     </g>
    </g>
    <g id="ytick_4">
     <g id="line2d_19">
      <path clip-path="url(#p69babeaa13)" d="M 47.81 160.389351 
L 637.2 160.389351 
" style="fill:none;stroke:#b0b0b0;stroke-linecap:square;stroke-width:0.8;"/>
     </g>
     <g id="line2d_20">
      <g>
       <use style="stroke:#000000;stroke-width:0.8;" x="47.81" xlink:href="#mc2ed9f2fda" y="160.389351"/>
      </g>
     </g>
     <g id="text_11">
      <!-- 0.4 -->
      <g transform="translate(24.906875 164.188569)scale(0.1 -0.1)">
       <use xlink:href="#DejaVuSans-30"/>
       <use x="63.623047" xlink:href="#DejaVuSans-2e"/>
       <use x="95.410156" xlink:href="#DejaVuSans-34"/>
      </g>
     </g>
    </g>
    <g id="ytick_5">
     <g id="line2d_21">
      <path clip-path="url(#p69babeaa13)" d="M 47.81 101.201039 
L 637.2 101.201039 
" style="fill:none;stroke:#b0b0b0;stroke-linecap:square;stroke-width:0.8;"/>
     </g>
     <g id="line2d_22">
      <g>
       <use style="stroke:#000000;stroke-width:0.8;" x="47.81" xlink:href="#mc2ed9f2fda" y="101.201039"/>
      </g>
     </g>
     <g id="text_12">
      <!-- 0.5 -->
      <g transform="translate(24.906875 105.000258)scale(0.1 -0.1)">
       <defs>
        <path d="M 691 4666 
L 3169 4666 
L 3169 4134 
L 1269 4134 
L 1269 2991 
Q 1406 3038 1543 3061 
Q 1681 3084 1819 3084 
Q 2600 3084 3056 2656 
Q 3513 2228 3513 1497 
Q 3513 744 3044 326 
Q 2575 -91 1722 -91 
Q 1428 -91 1123 -41 
Q 819 9 494 109 
L 494 744 
Q 775 591 1075 516 
Q 1375 441 1709 441 
Q 2250 441 2565 725 
Q 2881 1009 2881 1497 
Q 2881 1984 2565 2268 
Q 2250 2553 1709 2553 
Q 1456 2553 1204 2497 
Q 953 2441 691 2322 
L 691 4666 
z
" id="DejaVuSans-35" transform="scale(0.015625)"/>
       </defs>
       <use xlink:href="#DejaVuSans-30"/>
       <use x="63.623047" xlink:href="#DejaVuSans-2e"/>
       <use x="95.410156" xlink:href="#DejaVuSans-35"/>
      </g>
     </g>
    </g>
    <g id="ytick_6">
     <g id="line2d_23">
      <path clip-path="url(#p69babeaa13)" d="M 47.81 42.012727 
L 637.2 42.012727 
" style="fill:none;stroke:#b0b0b0;stroke-linecap:square;stroke-width:0.8;"/>
     </g>
     <g id="line2d_24">
      <g>
       <use style="stroke:#000000;stroke-width:0.8;" x="47.81" xlink:href="#mc2ed9f2fda" y="42.012727"/>
      </g>
     </g>
     <g id="text_13">
      <!-- 0.6 -->
      <g transform="translate(24.906875 45.811946)scale(0.1 -0.1)">
       <use xlink:href="#DejaVuSans-30"/>
       <use x="63.623047" xlink:href="#DejaVuSans-2e"/>
       <use x="95.410156" xlink:href="#DejaVuSans-36"/>
      </g>
     </g>
    </g>
    <g id="text_14">
     <!-- Accuracy -->
     <g transform="translate(18.827188 230.568125)rotate(-90)scale(0.1 -0.1)">
      <defs>
       <path d="M 2188 4044 
L 1331 1722 
L 3047 1722 
L 2188 4044 
z
M 1831 4666 
L 2547 4666 
L 4325 0 
L 3669 0 
L 3244 1197 
L 1141 1197 
L 716 0 
L 50 0 
L 1831 4666 
z
" id="DejaVuSans-41" transform="scale(0.015625)"/>
       <path d="M 2194 1759 
Q 1497 1759 1228 1600 
Q 959 1441 959 1056 
Q 959 750 1161 570 
Q 1363 391 1709 391 
Q 2188 391 2477 730 
Q 2766 1069 2766 1631 
L 2766 1759 
L 2194 1759 
z
M 3341 1997 
L 3341 0 
L 2766 0 
L 2766 531 
Q 2569 213 2275 61 
Q 1981 -91 1556 -91 
Q 1019 -91 701 211 
Q 384 513 384 1019 
Q 384 1609 779 1909 
Q 1175 2209 1959 2209 
L 2766 2209 
L 2766 2266 
Q 2766 2663 2505 2880 
Q 2244 3097 1772 3097 
Q 1472 3097 1187 3025 
Q 903 2953 641 2809 
L 641 3341 
Q 956 3463 1253 3523 
Q 1550 3584 1831 3584 
Q 2591 3584 2966 3190 
Q 3341 2797 3341 1997 
z
" id="DejaVuSans-61" transform="scale(0.015625)"/>
       <path d="M 2059 -325 
Q 1816 -950 1584 -1140 
Q 1353 -1331 966 -1331 
L 506 -1331 
L 506 -850 
L 844 -850 
Q 1081 -850 1212 -737 
Q 1344 -625 1503 -206 
L 1606 56 
L 191 3500 
L 800 3500 
L 1894 763 
L 2988 3500 
L 3597 3500 
L 2059 -325 
z
" id="DejaVuSans-79" transform="scale(0.015625)"/>
      </defs>
      <use xlink:href="#DejaVuSans-41"/>
      <use x="66.658203" xlink:href="#DejaVuSans-63"/>
      <use x="121.638672" xlink:href="#DejaVuSans-63"/>
      <use x="176.619141" xlink:href="#DejaVuSans-75"/>
      <use x="239.998047" xlink:href="#DejaVuSans-72"/>
      <use x="281.111328" xlink:href="#DejaVuSans-61"/>
      <use x="342.390625" xlink:href="#DejaVuSans-63"/>
      <use x="397.371094" xlink:href="#DejaVuSans-79"/>
     </g>
    </g>
   </g>
   <g id="line2d_25">
    <path clip-path="url(#p69babeaa13)" d="M 74.600455 42.012727 
L 75.137337 373.467273 
L 75.67422 213.658831 
L 76.211103 225.496494 
L 76.747986 243.252987 
L 77.284869 249.171818 
L 77.821752 261.009481 
L 78.358635 261.009481 
L 78.895517 272.847143 
L 79.4324 272.847143 
L 79.969283 290.603636 
L 80.506166 284.684805 
L 81.043049 231.415325 
L 81.579932 243.252987 
L 82.116815 243.252987 
L 82.653697 266.928312 
L 83.19058 219.577662 
L 83.727463 278.765974 
L 84.264346 272.847143 
L 84.801229 255.090649 
L 85.338112 272.847143 
L 86.411877 272.847143 
L 86.94876 296.522468 
L 87.485643 278.765974 
L 88.022526 284.684805 
L 88.559409 278.765974 
L 89.096292 284.684805 
L 89.633175 284.684805 
L 89.633175 284.684805 
L 90.170057 290.603636 
L 90.70694 290.603636 
L 91.243823 261.009481 
L 91.780706 284.684805 
L 92.317589 278.765974 
L 92.854472 302.441299 
L 93.391355 272.847143 
L 93.928237 284.684805 
L 94.46512 284.684805 
L 95.002003 296.522468 
L 95.538886 290.603636 
L 96.075769 308.36013 
L 96.612652 278.765974 
L 97.149535 266.928312 
L 98.2233 266.928312 
L 98.760183 272.847143 
L 99.297066 266.928312 
L 99.833949 266.928312 
L 100.370832 284.684805 
L 100.907715 266.928312 
L 101.444597 266.928312 
L 101.98148 284.684805 
L 102.518363 278.765974 
L 103.055246 302.441299 
L 103.592129 266.928312 
L 104.129012 278.765974 
L 104.665895 272.847143 
L 105.202777 272.847143 
L 105.73966 266.928312 
L 106.276543 266.928312 
L 106.813426 284.684805 
L 107.350309 278.765974 
L 107.887192 266.928312 
L 108.424075 272.847143 
L 108.960957 249.171818 
L 109.49784 272.847143 
L 110.571606 272.847143 
L 111.108489 255.090649 
L 111.645372 266.928312 
L 112.182255 261.009481 
L 112.719137 290.603636 
L 113.25602 272.847143 
L 113.792903 261.009481 
L 114.866669 272.847143 
L 115.403552 272.847143 
L 115.940435 261.009481 
L 117.0142 272.847143 
L 117.551083 255.090649 
L 118.087966 255.090649 
L 118.624849 261.009481 
L 119.161732 272.847143 
L 120.77238 272.847143 
L 121.309263 266.928312 
L 121.846146 278.765974 
L 122.383029 261.009481 
L 122.919912 284.684805 
L 123.456794 266.928312 
L 123.993677 278.765974 
L 124.53056 284.684805 
L 125.067443 266.928312 
L 125.604326 261.009481 
L 126.141209 278.765974 
L 126.678092 261.009481 
L 127.214974 272.847143 
L 127.751857 272.847143 
L 128.28874 278.765974 
L 128.825623 278.765974 
L 129.362506 272.847143 
L 129.899389 261.009481 
L 130.436272 272.847143 
L 130.973154 272.847143 
L 131.510037 261.009481 
L 132.583803 284.684805 
L 133.120686 261.009481 
L 133.657569 284.684805 
L 134.194452 272.847143 
L 134.731334 255.090649 
L 135.268217 272.847143 
L 135.8051 261.009481 
L 136.341983 261.009481 
L 136.878866 266.928312 
L 137.415749 255.090649 
L 138.489514 266.928312 
L 139.56328 266.928312 
L 140.100163 261.009481 
L 140.637046 261.009481 
L 141.173929 284.684805 
L 141.710812 266.928312 
L 142.247694 255.090649 
L 142.784577 278.765974 
L 143.32146 272.847143 
L 143.858343 272.847143 
L 144.395226 278.765974 
L 144.932109 278.765974 
L 145.468992 255.090649 
L 146.005874 266.928312 
L 146.542757 266.928312 
L 147.07964 272.847143 
L 147.616523 261.009481 
L 148.153406 278.765974 
L 148.690289 266.928312 
L 149.227172 261.009481 
L 149.764054 278.765974 
L 150.300937 266.928312 
L 150.83782 266.928312 
L 151.374703 272.847143 
L 151.911586 261.009481 
L 152.448469 266.928312 
L 153.522234 266.928312 
L 154.059117 255.090649 
L 180.90326 272.847143 
L 207.747403 261.009481 
L 288.279831 261.009481 
L 315.123974 255.090649 
L 610.409545 255.090649 
L 610.409545 255.090649 
" style="fill:none;stroke:#ff0000;stroke-linecap:square;stroke-width:1.5;"/>
    <defs>
     <path d="M 0 3 
C 0.795609 3 1.55874 2.683901 2.12132 2.12132 
C 2.683901 1.55874 3 0.795609 3 0 
C 3 -0.795609 2.683901 -1.55874 2.12132 -2.12132 
C 1.55874 -2.683901 0.795609 -3 0 -3 
C -0.795609 -3 -1.55874 -2.683901 -2.12132 -2.12132 
C -2.683901 -1.55874 -3 -0.795609 -3 0 
C -3 0.795609 -2.683901 1.55874 -2.12132 2.12132 
C -1.55874 2.683901 -0.795609 3 0 3 
z
" id="m1f62d1228d" style="stroke:#ff0000;"/>
    </defs>
    <g clip-path="url(#p69babeaa13)">
     <use style="fill:#ff0000;stroke:#ff0000;" x="74.600455" xlink:href="#m1f62d1228d" y="42.012727"/>
     <use style="fill:#ff0000;stroke:#ff0000;" x="75.137337" xlink:href="#m1f62d1228d" y="373.467273"/>
     <use style="fill:#ff0000;stroke:#ff0000;" x="75.67422" xlink:href="#m1f62d1228d" y="213.658831"/>
     <use style="fill:#ff0000;stroke:#ff0000;" x="76.211103" xlink:href="#m1f62d1228d" y="225.496494"/>
     <use style="fill:#ff0000;stroke:#ff0000;" x="76.747986" xlink:href="#m1f62d1228d" y="243.252987"/>
     <use style="fill:#ff0000;stroke:#ff0000;" x="77.284869" xlink:href="#m1f62d1228d" y="249.171818"/>
     <use style="fill:#ff0000;stroke:#ff0000;" x="77.821752" xlink:href="#m1f62d1228d" y="261.009481"/>
     <use style="fill:#ff0000;stroke:#ff0000;" x="78.358635" xlink:href="#m1f62d1228d" y="261.009481"/>
     <use style="fill:#ff0000;stroke:#ff0000;" x="78.895517" xlink:href="#m1f62d1228d" y="272.847143"/>
     <use style="fill:#ff0000;stroke:#ff0000;" x="79.4324" xlink:href="#m1f62d1228d" y="272.847143"/>
     <use style="fill:#ff0000;stroke:#ff0000;" x="79.969283" xlink:href="#m1f62d1228d" y="290.603636"/>
     <use style="fill:#ff0000;stroke:#ff0000;" x="80.506166" xlink:href="#m1f62d1228d" y="284.684805"/>
     <use style="fill:#ff0000;stroke:#ff0000;" x="81.043049" xlink:href="#m1f62d1228d" y="231.415325"/>
     <use style="fill:#ff0000;stroke:#ff0000;" x="81.579932" xlink:href="#m1f62d1228d" y="243.252987"/>
     <use style="fill:#ff0000;stroke:#ff0000;" x="82.116815" xlink:href="#m1f62d1228d" y="243.252987"/>
     <use style="fill:#ff0000;stroke:#ff0000;" x="82.653697" xlink:href="#m1f62d1228d" y="266.928312"/>
     <use style="fill:#ff0000;stroke:#ff0000;" x="83.19058" xlink:href="#m1f62d1228d" y="219.577662"/>
     <use style="fill:#ff0000;stroke:#ff0000;" x="83.727463" xlink:href="#m1f62d1228d" y="278.765974"/>
     <use style="fill:#ff0000;stroke:#ff0000;" x="84.264346" xlink:href="#m1f62d1228d" y="272.847143"/>
     <use style="fill:#ff0000;stroke:#ff0000;" x="84.801229" xlink:href="#m1f62d1228d" y="255.090649"/>
     <use style="fill:#ff0000;stroke:#ff0000;" x="85.338112" xlink:href="#m1f62d1228d" y="272.847143"/>
     <use style="fill:#ff0000;stroke:#ff0000;" x="85.874995" xlink:href="#m1f62d1228d" y="272.847143"/>
     <use style="fill:#ff0000;stroke:#ff0000;" x="86.411877" xlink:href="#m1f62d1228d" y="272.847143"/>
     <use style="fill:#ff0000;stroke:#ff0000;" x="86.94876" xlink:href="#m1f62d1228d" y="296.522468"/>
     <use style="fill:#ff0000;stroke:#ff0000;" x="87.485643" xlink:href="#m1f62d1228d" y="278.765974"/>
     <use style="fill:#ff0000;stroke:#ff0000;" x="88.022526" xlink:href="#m1f62d1228d" y="284.684805"/>
     <use style="fill:#ff0000;stroke:#ff0000;" x="88.559409" xlink:href="#m1f62d1228d" y="278.765974"/>
     <use style="fill:#ff0000;stroke:#ff0000;" x="89.096292" xlink:href="#m1f62d1228d" y="284.684805"/>
     <use style="fill:#ff0000;stroke:#ff0000;" x="89.633175" xlink:href="#m1f62d1228d" y="284.684805"/>
     <use style="fill:#ff0000;stroke:#ff0000;" x="89.633175" xlink:href="#m1f62d1228d" y="284.684805"/>
     <use style="fill:#ff0000;stroke:#ff0000;" x="90.170057" xlink:href="#m1f62d1228d" y="290.603636"/>
     <use style="fill:#ff0000;stroke:#ff0000;" x="90.70694" xlink:href="#m1f62d1228d" y="290.603636"/>
     <use style="fill:#ff0000;stroke:#ff0000;" x="91.243823" xlink:href="#m1f62d1228d" y="261.009481"/>
     <use style="fill:#ff0000;stroke:#ff0000;" x="91.780706" xlink:href="#m1f62d1228d" y="284.684805"/>
     <use style="fill:#ff0000;stroke:#ff0000;" x="92.317589" xlink:href="#m1f62d1228d" y="278.765974"/>
     <use style="fill:#ff0000;stroke:#ff0000;" x="92.854472" xlink:href="#m1f62d1228d" y="302.441299"/>
     <use style="fill:#ff0000;stroke:#ff0000;" x="93.391355" xlink:href="#m1f62d1228d" y="272.847143"/>
     <use style="fill:#ff0000;stroke:#ff0000;" x="93.928237" xlink:href="#m1f62d1228d" y="284.684805"/>
     <use style="fill:#ff0000;stroke:#ff0000;" x="94.46512" xlink:href="#m1f62d1228d" y="284.684805"/>
     <use style="fill:#ff0000;stroke:#ff0000;" x="95.002003" xlink:href="#m1f62d1228d" y="296.522468"/>
     <use style="fill:#ff0000;stroke:#ff0000;" x="95.538886" xlink:href="#m1f62d1228d" y="290.603636"/>
     <use style="fill:#ff0000;stroke:#ff0000;" x="96.075769" xlink:href="#m1f62d1228d" y="308.36013"/>
     <use style="fill:#ff0000;stroke:#ff0000;" x="96.612652" xlink:href="#m1f62d1228d" y="278.765974"/>
     <use style="fill:#ff0000;stroke:#ff0000;" x="97.149535" xlink:href="#m1f62d1228d" y="266.928312"/>
     <use style="fill:#ff0000;stroke:#ff0000;" x="97.686417" xlink:href="#m1f62d1228d" y="266.928312"/>
     <use style="fill:#ff0000;stroke:#ff0000;" x="98.2233" xlink:href="#m1f62d1228d" y="266.928312"/>
     <use style="fill:#ff0000;stroke:#ff0000;" x="98.760183" xlink:href="#m1f62d1228d" y="272.847143"/>
     <use style="fill:#ff0000;stroke:#ff0000;" x="99.297066" xlink:href="#m1f62d1228d" y="266.928312"/>
     <use style="fill:#ff0000;stroke:#ff0000;" x="99.833949" xlink:href="#m1f62d1228d" y="266.928312"/>
     <use style="fill:#ff0000;stroke:#ff0000;" x="100.370832" xlink:href="#m1f62d1228d" y="284.684805"/>
     <use style="fill:#ff0000;stroke:#ff0000;" x="100.907715" xlink:href="#m1f62d1228d" y="266.928312"/>
     <use style="fill:#ff0000;stroke:#ff0000;" x="101.444597" xlink:href="#m1f62d1228d" y="266.928312"/>
     <use style="fill:#ff0000;stroke:#ff0000;" x="101.98148" xlink:href="#m1f62d1228d" y="284.684805"/>
     <use style="fill:#ff0000;stroke:#ff0000;" x="102.518363" xlink:href="#m1f62d1228d" y="278.765974"/>
     <use style="fill:#ff0000;stroke:#ff0000;" x="103.055246" xlink:href="#m1f62d1228d" y="302.441299"/>
     <use style="fill:#ff0000;stroke:#ff0000;" x="103.592129" xlink:href="#m1f62d1228d" y="266.928312"/>
     <use style="fill:#ff0000;stroke:#ff0000;" x="104.129012" xlink:href="#m1f62d1228d" y="278.765974"/>
     <use style="fill:#ff0000;stroke:#ff0000;" x="104.665895" xlink:href="#m1f62d1228d" y="272.847143"/>
     <use style="fill:#ff0000;stroke:#ff0000;" x="105.202777" xlink:href="#m1f62d1228d" y="272.847143"/>
     <use style="fill:#ff0000;stroke:#ff0000;" x="105.73966" xlink:href="#m1f62d1228d" y="266.928312"/>
     <use style="fill:#ff0000;stroke:#ff0000;" x="106.276543" xlink:href="#m1f62d1228d" y="266.928312"/>
     <use style="fill:#ff0000;stroke:#ff0000;" x="106.813426" xlink:href="#m1f62d1228d" y="284.684805"/>
     <use style="fill:#ff0000;stroke:#ff0000;" x="107.350309" xlink:href="#m1f62d1228d" y="278.765974"/>
     <use style="fill:#ff0000;stroke:#ff0000;" x="107.887192" xlink:href="#m1f62d1228d" y="266.928312"/>
     <use style="fill:#ff0000;stroke:#ff0000;" x="108.424075" xlink:href="#m1f62d1228d" y="272.847143"/>
     <use style="fill:#ff0000;stroke:#ff0000;" x="108.960957" xlink:href="#m1f62d1228d" y="249.171818"/>
     <use style="fill:#ff0000;stroke:#ff0000;" x="109.49784" xlink:href="#m1f62d1228d" y="272.847143"/>
     <use style="fill:#ff0000;stroke:#ff0000;" x="110.034723" xlink:href="#m1f62d1228d" y="272.847143"/>
     <use style="fill:#ff0000;stroke:#ff0000;" x="110.571606" xlink:href="#m1f62d1228d" y="272.847143"/>
     <use style="fill:#ff0000;stroke:#ff0000;" x="111.108489" xlink:href="#m1f62d1228d" y="255.090649"/>
     <use style="fill:#ff0000;stroke:#ff0000;" x="111.645372" xlink:href="#m1f62d1228d" y="266.928312"/>
     <use style="fill:#ff0000;stroke:#ff0000;" x="112.182255" xlink:href="#m1f62d1228d" y="261.009481"/>
     <use style="fill:#ff0000;stroke:#ff0000;" x="112.719137" xlink:href="#m1f62d1228d" y="290.603636"/>
     <use style="fill:#ff0000;stroke:#ff0000;" x="113.25602" xlink:href="#m1f62d1228d" y="272.847143"/>
     <use style="fill:#ff0000;stroke:#ff0000;" x="113.792903" xlink:href="#m1f62d1228d" y="261.009481"/>
     <use style="fill:#ff0000;stroke:#ff0000;" x="114.329786" xlink:href="#m1f62d1228d" y="266.928312"/>
     <use style="fill:#ff0000;stroke:#ff0000;" x="114.866669" xlink:href="#m1f62d1228d" y="272.847143"/>
     <use style="fill:#ff0000;stroke:#ff0000;" x="115.403552" xlink:href="#m1f62d1228d" y="272.847143"/>
     <use style="fill:#ff0000;stroke:#ff0000;" x="115.940435" xlink:href="#m1f62d1228d" y="261.009481"/>
     <use style="fill:#ff0000;stroke:#ff0000;" x="116.477317" xlink:href="#m1f62d1228d" y="266.928312"/>
     <use style="fill:#ff0000;stroke:#ff0000;" x="117.0142" xlink:href="#m1f62d1228d" y="272.847143"/>
     <use style="fill:#ff0000;stroke:#ff0000;" x="117.551083" xlink:href="#m1f62d1228d" y="255.090649"/>
     <use style="fill:#ff0000;stroke:#ff0000;" x="118.087966" xlink:href="#m1f62d1228d" y="255.090649"/>
     <use style="fill:#ff0000;stroke:#ff0000;" x="118.624849" xlink:href="#m1f62d1228d" y="261.009481"/>
     <use style="fill:#ff0000;stroke:#ff0000;" x="119.161732" xlink:href="#m1f62d1228d" y="272.847143"/>
     <use style="fill:#ff0000;stroke:#ff0000;" x="119.698615" xlink:href="#m1f62d1228d" y="272.847143"/>
     <use style="fill:#ff0000;stroke:#ff0000;" x="120.235497" xlink:href="#m1f62d1228d" y="272.847143"/>
     <use style="fill:#ff0000;stroke:#ff0000;" x="120.77238" xlink:href="#m1f62d1228d" y="272.847143"/>
     <use style="fill:#ff0000;stroke:#ff0000;" x="121.309263" xlink:href="#m1f62d1228d" y="266.928312"/>
     <use style="fill:#ff0000;stroke:#ff0000;" x="121.846146" xlink:href="#m1f62d1228d" y="278.765974"/>
     <use style="fill:#ff0000;stroke:#ff0000;" x="122.383029" xlink:href="#m1f62d1228d" y="261.009481"/>
     <use style="fill:#ff0000;stroke:#ff0000;" x="122.919912" xlink:href="#m1f62d1228d" y="284.684805"/>
     <use style="fill:#ff0000;stroke:#ff0000;" x="123.456794" xlink:href="#m1f62d1228d" y="266.928312"/>
     <use style="fill:#ff0000;stroke:#ff0000;" x="123.993677" xlink:href="#m1f62d1228d" y="278.765974"/>
     <use style="fill:#ff0000;stroke:#ff0000;" x="124.53056" xlink:href="#m1f62d1228d" y="284.684805"/>
     <use style="fill:#ff0000;stroke:#ff0000;" x="125.067443" xlink:href="#m1f62d1228d" y="266.928312"/>
     <use style="fill:#ff0000;stroke:#ff0000;" x="125.604326" xlink:href="#m1f62d1228d" y="261.009481"/>
     <use style="fill:#ff0000;stroke:#ff0000;" x="126.141209" xlink:href="#m1f62d1228d" y="278.765974"/>
     <use style="fill:#ff0000;stroke:#ff0000;" x="126.678092" xlink:href="#m1f62d1228d" y="261.009481"/>
     <use style="fill:#ff0000;stroke:#ff0000;" x="127.214974" xlink:href="#m1f62d1228d" y="272.847143"/>
     <use style="fill:#ff0000;stroke:#ff0000;" x="127.751857" xlink:href="#m1f62d1228d" y="272.847143"/>
     <use style="fill:#ff0000;stroke:#ff0000;" x="128.28874" xlink:href="#m1f62d1228d" y="278.765974"/>
     <use style="fill:#ff0000;stroke:#ff0000;" x="128.825623" xlink:href="#m1f62d1228d" y="278.765974"/>
     <use style="fill:#ff0000;stroke:#ff0000;" x="129.362506" xlink:href="#m1f62d1228d" y="272.847143"/>
     <use style="fill:#ff0000;stroke:#ff0000;" x="129.899389" xlink:href="#m1f62d1228d" y="261.009481"/>
     <use style="fill:#ff0000;stroke:#ff0000;" x="130.436272" xlink:href="#m1f62d1228d" y="272.847143"/>
     <use style="fill:#ff0000;stroke:#ff0000;" x="130.973154" xlink:href="#m1f62d1228d" y="272.847143"/>
     <use style="fill:#ff0000;stroke:#ff0000;" x="131.510037" xlink:href="#m1f62d1228d" y="261.009481"/>
     <use style="fill:#ff0000;stroke:#ff0000;" x="132.04692" xlink:href="#m1f62d1228d" y="272.847143"/>
     <use style="fill:#ff0000;stroke:#ff0000;" x="132.583803" xlink:href="#m1f62d1228d" y="284.684805"/>
     <use style="fill:#ff0000;stroke:#ff0000;" x="133.120686" xlink:href="#m1f62d1228d" y="261.009481"/>
     <use style="fill:#ff0000;stroke:#ff0000;" x="133.657569" xlink:href="#m1f62d1228d" y="284.684805"/>
     <use style="fill:#ff0000;stroke:#ff0000;" x="134.194452" xlink:href="#m1f62d1228d" y="272.847143"/>
     <use style="fill:#ff0000;stroke:#ff0000;" x="134.731334" xlink:href="#m1f62d1228d" y="255.090649"/>
     <use style="fill:#ff0000;stroke:#ff0000;" x="135.268217" xlink:href="#m1f62d1228d" y="272.847143"/>
     <use style="fill:#ff0000;stroke:#ff0000;" x="135.8051" xlink:href="#m1f62d1228d" y="261.009481"/>
     <use style="fill:#ff0000;stroke:#ff0000;" x="136.341983" xlink:href="#m1f62d1228d" y="261.009481"/>
     <use style="fill:#ff0000;stroke:#ff0000;" x="136.878866" xlink:href="#m1f62d1228d" y="266.928312"/>
     <use style="fill:#ff0000;stroke:#ff0000;" x="137.415749" xlink:href="#m1f62d1228d" y="255.090649"/>
     <use style="fill:#ff0000;stroke:#ff0000;" x="137.952632" xlink:href="#m1f62d1228d" y="261.009481"/>
     <use style="fill:#ff0000;stroke:#ff0000;" x="138.489514" xlink:href="#m1f62d1228d" y="266.928312"/>
     <use style="fill:#ff0000;stroke:#ff0000;" x="139.026397" xlink:href="#m1f62d1228d" y="266.928312"/>
     <use style="fill:#ff0000;stroke:#ff0000;" x="139.56328" xlink:href="#m1f62d1228d" y="266.928312"/>
     <use style="fill:#ff0000;stroke:#ff0000;" x="140.100163" xlink:href="#m1f62d1228d" y="261.009481"/>
     <use style="fill:#ff0000;stroke:#ff0000;" x="140.637046" xlink:href="#m1f62d1228d" y="261.009481"/>
     <use style="fill:#ff0000;stroke:#ff0000;" x="141.173929" xlink:href="#m1f62d1228d" y="284.684805"/>
     <use style="fill:#ff0000;stroke:#ff0000;" x="141.710812" xlink:href="#m1f62d1228d" y="266.928312"/>
     <use style="fill:#ff0000;stroke:#ff0000;" x="142.247694" xlink:href="#m1f62d1228d" y="255.090649"/>
     <use style="fill:#ff0000;stroke:#ff0000;" x="142.784577" xlink:href="#m1f62d1228d" y="278.765974"/>
     <use style="fill:#ff0000;stroke:#ff0000;" x="143.32146" xlink:href="#m1f62d1228d" y="272.847143"/>
     <use style="fill:#ff0000;stroke:#ff0000;" x="143.858343" xlink:href="#m1f62d1228d" y="272.847143"/>
     <use style="fill:#ff0000;stroke:#ff0000;" x="144.395226" xlink:href="#m1f62d1228d" y="278.765974"/>
     <use style="fill:#ff0000;stroke:#ff0000;" x="144.932109" xlink:href="#m1f62d1228d" y="278.765974"/>
     <use style="fill:#ff0000;stroke:#ff0000;" x="145.468992" xlink:href="#m1f62d1228d" y="255.090649"/>
     <use style="fill:#ff0000;stroke:#ff0000;" x="146.005874" xlink:href="#m1f62d1228d" y="266.928312"/>
     <use style="fill:#ff0000;stroke:#ff0000;" x="146.542757" xlink:href="#m1f62d1228d" y="266.928312"/>
     <use style="fill:#ff0000;stroke:#ff0000;" x="147.07964" xlink:href="#m1f62d1228d" y="272.847143"/>
     <use style="fill:#ff0000;stroke:#ff0000;" x="147.616523" xlink:href="#m1f62d1228d" y="261.009481"/>
     <use style="fill:#ff0000;stroke:#ff0000;" x="148.153406" xlink:href="#m1f62d1228d" y="278.765974"/>
     <use style="fill:#ff0000;stroke:#ff0000;" x="148.690289" xlink:href="#m1f62d1228d" y="266.928312"/>
     <use style="fill:#ff0000;stroke:#ff0000;" x="149.227172" xlink:href="#m1f62d1228d" y="261.009481"/>
     <use style="fill:#ff0000;stroke:#ff0000;" x="149.764054" xlink:href="#m1f62d1228d" y="278.765974"/>
     <use style="fill:#ff0000;stroke:#ff0000;" x="150.300937" xlink:href="#m1f62d1228d" y="266.928312"/>
     <use style="fill:#ff0000;stroke:#ff0000;" x="150.83782" xlink:href="#m1f62d1228d" y="266.928312"/>
     <use style="fill:#ff0000;stroke:#ff0000;" x="151.374703" xlink:href="#m1f62d1228d" y="272.847143"/>
     <use style="fill:#ff0000;stroke:#ff0000;" x="151.911586" xlink:href="#m1f62d1228d" y="261.009481"/>
     <use style="fill:#ff0000;stroke:#ff0000;" x="152.448469" xlink:href="#m1f62d1228d" y="266.928312"/>
     <use style="fill:#ff0000;stroke:#ff0000;" x="152.985352" xlink:href="#m1f62d1228d" y="266.928312"/>
     <use style="fill:#ff0000;stroke:#ff0000;" x="153.522234" xlink:href="#m1f62d1228d" y="266.928312"/>
     <use style="fill:#ff0000;stroke:#ff0000;" x="154.059117" xlink:href="#m1f62d1228d" y="255.090649"/>
     <use style="fill:#ff0000;stroke:#ff0000;" x="180.90326" xlink:href="#m1f62d1228d" y="272.847143"/>
     <use style="fill:#ff0000;stroke:#ff0000;" x="207.747403" xlink:href="#m1f62d1228d" y="261.009481"/>
     <use style="fill:#ff0000;stroke:#ff0000;" x="234.591546" xlink:href="#m1f62d1228d" y="261.009481"/>
     <use style="fill:#ff0000;stroke:#ff0000;" x="261.435689" xlink:href="#m1f62d1228d" y="261.009481"/>
     <use style="fill:#ff0000;stroke:#ff0000;" x="288.279831" xlink:href="#m1f62d1228d" y="261.009481"/>
     <use style="fill:#ff0000;stroke:#ff0000;" x="315.123974" xlink:href="#m1f62d1228d" y="255.090649"/>
     <use style="fill:#ff0000;stroke:#ff0000;" x="341.968117" xlink:href="#m1f62d1228d" y="255.090649"/>
     <use style="fill:#ff0000;stroke:#ff0000;" x="610.409545" xlink:href="#m1f62d1228d" y="255.090649"/>
    </g>
   </g>
   <g id="patch_3">
    <path d="M 47.81 390.04 
L 47.81 25.44 
" style="fill:none;stroke:#000000;stroke-linecap:square;stroke-linejoin:miter;stroke-width:0.8;"/>
   </g>
   <g id="patch_4">
    <path d="M 637.2 390.04 
L 637.2 25.44 
" style="fill:none;stroke:#000000;stroke-linecap:square;stroke-linejoin:miter;stroke-width:0.8;"/>
   </g>
   <g id="patch_5">
    <path d="M 47.81 390.04 
L 637.2 390.04 
" style="fill:none;stroke:#000000;stroke-linecap:square;stroke-linejoin:miter;stroke-width:0.8;"/>
   </g>
   <g id="patch_6">
    <path d="M 47.81 25.44 
L 637.2 25.44 
" style="fill:none;stroke:#000000;stroke-linecap:square;stroke-linejoin:miter;stroke-width:0.8;"/>
   </g>
   <g id="text_15">
    <!-- Accuracy evolution according to the number of clusters -->
    <g transform="translate(175.890625 19.44)scale(0.12 -0.12)">
     <defs>
      <path d="M 191 3500 
L 800 3500 
L 1894 563 
L 2988 3500 
L 3597 3500 
L 2284 0 
L 1503 0 
L 191 3500 
z
" id="DejaVuSans-76" transform="scale(0.015625)"/>
      <path d="M 603 3500 
L 1178 3500 
L 1178 0 
L 603 0 
L 603 3500 
z
M 603 4863 
L 1178 4863 
L 1178 4134 
L 603 4134 
L 603 4863 
z
" id="DejaVuSans-69" transform="scale(0.015625)"/>
      <path d="M 3513 2113 
L 3513 0 
L 2938 0 
L 2938 2094 
Q 2938 2591 2744 2837 
Q 2550 3084 2163 3084 
Q 1697 3084 1428 2787 
Q 1159 2491 1159 1978 
L 1159 0 
L 581 0 
L 581 3500 
L 1159 3500 
L 1159 2956 
Q 1366 3272 1645 3428 
Q 1925 3584 2291 3584 
Q 2894 3584 3203 3211 
Q 3513 2838 3513 2113 
z
" id="DejaVuSans-6e" transform="scale(0.015625)"/>
      <path d="M 2906 2969 
L 2906 4863 
L 3481 4863 
L 3481 0 
L 2906 0 
L 2906 525 
Q 2725 213 2448 61 
Q 2172 -91 1784 -91 
Q 1150 -91 751 415 
Q 353 922 353 1747 
Q 353 2572 751 3078 
Q 1150 3584 1784 3584 
Q 2172 3584 2448 3432 
Q 2725 3281 2906 2969 
z
M 947 1747 
Q 947 1113 1208 752 
Q 1469 391 1925 391 
Q 2381 391 2643 752 
Q 2906 1113 2906 1747 
Q 2906 2381 2643 2742 
Q 2381 3103 1925 3103 
Q 1469 3103 1208 2742 
Q 947 2381 947 1747 
z
" id="DejaVuSans-64" transform="scale(0.015625)"/>
      <path d="M 2906 1791 
Q 2906 2416 2648 2759 
Q 2391 3103 1925 3103 
Q 1463 3103 1205 2759 
Q 947 2416 947 1791 
Q 947 1169 1205 825 
Q 1463 481 1925 481 
Q 2391 481 2648 825 
Q 2906 1169 2906 1791 
z
M 3481 434 
Q 3481 -459 3084 -895 
Q 2688 -1331 1869 -1331 
Q 1566 -1331 1297 -1286 
Q 1028 -1241 775 -1147 
L 775 -588 
Q 1028 -725 1275 -790 
Q 1522 -856 1778 -856 
Q 2344 -856 2625 -561 
Q 2906 -266 2906 331 
L 2906 616 
Q 2728 306 2450 153 
Q 2172 0 1784 0 
Q 1141 0 747 490 
Q 353 981 353 1791 
Q 353 2603 747 3093 
Q 1141 3584 1784 3584 
Q 2172 3584 2450 3431 
Q 2728 3278 2906 2969 
L 2906 3500 
L 3481 3500 
L 3481 434 
z
" id="DejaVuSans-67" transform="scale(0.015625)"/>
      <path d="M 3513 2113 
L 3513 0 
L 2938 0 
L 2938 2094 
Q 2938 2591 2744 2837 
Q 2550 3084 2163 3084 
Q 1697 3084 1428 2787 
Q 1159 2491 1159 1978 
L 1159 0 
L 581 0 
L 581 4863 
L 1159 4863 
L 1159 2956 
Q 1366 3272 1645 3428 
Q 1925 3584 2291 3584 
Q 2894 3584 3203 3211 
Q 3513 2838 3513 2113 
z
" id="DejaVuSans-68" transform="scale(0.015625)"/>
     </defs>
     <use xlink:href="#DejaVuSans-41"/>
     <use x="66.658203" xlink:href="#DejaVuSans-63"/>
     <use x="121.638672" xlink:href="#DejaVuSans-63"/>
     <use x="176.619141" xlink:href="#DejaVuSans-75"/>
     <use x="239.998047" xlink:href="#DejaVuSans-72"/>
     <use x="281.111328" xlink:href="#DejaVuSans-61"/>
     <use x="342.390625" xlink:href="#DejaVuSans-63"/>
     <use x="397.371094" xlink:href="#DejaVuSans-79"/>
     <use x="456.550781" xlink:href="#DejaVuSans-20"/>
     <use x="488.337891" xlink:href="#DejaVuSans-65"/>
     <use x="549.861328" xlink:href="#DejaVuSans-76"/>
     <use x="609.041016" xlink:href="#DejaVuSans-6f"/>
     <use x="670.222656" xlink:href="#DejaVuSans-6c"/>
     <use x="698.005859" xlink:href="#DejaVuSans-75"/>
     <use x="761.384766" xlink:href="#DejaVuSans-74"/>
     <use x="800.59375" xlink:href="#DejaVuSans-69"/>
     <use x="828.376953" xlink:href="#DejaVuSans-6f"/>
     <use x="889.558594" xlink:href="#DejaVuSans-6e"/>
     <use x="952.9375" xlink:href="#DejaVuSans-20"/>
     <use x="984.724609" xlink:href="#DejaVuSans-61"/>
     <use x="1046.003906" xlink:href="#DejaVuSans-63"/>
     <use x="1100.984375" xlink:href="#DejaVuSans-63"/>
     <use x="1155.964844" xlink:href="#DejaVuSans-6f"/>
     <use x="1217.146484" xlink:href="#DejaVuSans-72"/>
     <use x="1256.509766" xlink:href="#DejaVuSans-64"/>
     <use x="1319.986328" xlink:href="#DejaVuSans-69"/>
     <use x="1347.769531" xlink:href="#DejaVuSans-6e"/>
     <use x="1411.148438" xlink:href="#DejaVuSans-67"/>
     <use x="1474.625" xlink:href="#DejaVuSans-20"/>
     <use x="1506.412109" xlink:href="#DejaVuSans-74"/>
     <use x="1545.621094" xlink:href="#DejaVuSans-6f"/>
     <use x="1606.802734" xlink:href="#DejaVuSans-20"/>
     <use x="1638.589844" xlink:href="#DejaVuSans-74"/>
     <use x="1677.798828" xlink:href="#DejaVuSans-68"/>
     <use x="1741.177734" xlink:href="#DejaVuSans-65"/>
     <use x="1802.701172" xlink:href="#DejaVuSans-20"/>
     <use x="1834.488281" xlink:href="#DejaVuSans-6e"/>
     <use x="1897.867188" xlink:href="#DejaVuSans-75"/>
     <use x="1961.246094" xlink:href="#DejaVuSans-6d"/>
     <use x="2058.658203" xlink:href="#DejaVuSans-62"/>
     <use x="2122.134766" xlink:href="#DejaVuSans-65"/>
     <use x="2183.658203" xlink:href="#DejaVuSans-72"/>
     <use x="2224.771484" xlink:href="#DejaVuSans-20"/>
     <use x="2256.558594" xlink:href="#DejaVuSans-6f"/>
     <use x="2317.740234" xlink:href="#DejaVuSans-66"/>
     <use x="2352.945312" xlink:href="#DejaVuSans-20"/>
     <use x="2384.732422" xlink:href="#DejaVuSans-63"/>
     <use x="2439.712891" xlink:href="#DejaVuSans-6c"/>
     <use x="2467.496094" xlink:href="#DejaVuSans-75"/>
     <use x="2530.875" xlink:href="#DejaVuSans-73"/>
     <use x="2582.974609" xlink:href="#DejaVuSans-74"/>
     <use x="2622.183594" xlink:href="#DejaVuSans-65"/>
     <use x="2683.707031" xlink:href="#DejaVuSans-72"/>
     <use x="2724.820312" xlink:href="#DejaVuSans-73"/>
    </g>
   </g>
  </g>
 </g>
 <defs>
  <clipPath id="p69babeaa13">
   <rect height="364.6" width="589.39" x="47.81" y="25.44"/>
  </clipPath>
 </defs>
</svg>
