<?xml version="1.0" encoding="utf-8" standalone="no"?>
<!DOCTYPE svg PUBLIC "-//W3C//DTD SVG 1.1//EN"
  "http://www.w3.org/Graphics/SVG/1.1/DTD/svg11.dtd">
<svg height="576pt" version="1.1" viewBox="0 0 864 576" width="864pt" xmlns="http://www.w3.org/2000/svg" xmlns:xlink="http://www.w3.org/1999/xlink">
 <metadata>
  <rdf:RDF xmlns:cc="http://creativecommons.org/ns#" xmlns:dc="http://purl.org/dc/elements/1.1/" xmlns:rdf="http://www.w3.org/1999/02/22-rdf-syntax-ns#">
   <cc:Work>
    <dc:type rdf:resource="http://purl.org/dc/dcmitype/StillImage"/>
    <dc:date>2021-09-21T14:35:36.080759</dc:date>
    <dc:format>image/svg+xml</dc:format>
    <dc:creator>
     <cc:Agent>
      <dc:title>Matplotlib v3.4.2, https://matplotlib.org/</dc:title>
     </cc:Agent>
    </dc:creator>
   </cc:Work>
  </rdf:RDF>
 </metadata>
 <defs>
  <style type="text/css">*{stroke-linecap:butt;stroke-linejoin:round;}</style>
 </defs>
 <g id="figure_1">
  <g id="patch_1">
   <path d="M 0 576 
L 864 576 
L 864 0 
L 0 0 
z
" style="fill:#ffffff;"/>
  </g>
  <g id="axes_1">
   <g id="patch_2">
    <path d="M 108 512.64 
L 777.6 512.64 
L 777.6 69.12 
L 108 69.12 
z
" style="fill:#ffffff;"/>
   </g>
   <g id="matplotlib.axis_1">
    <g id="xtick_1">
     <g id="line2d_1">
      <path clip-path="url(#p793fec11fc)" d="M 138.436364 512.64 
L 138.436364 69.12 
" style="fill:none;stroke:#b0b0b0;stroke-linecap:square;stroke-width:0.8;"/>
     </g>
     <g id="line2d_2">
      <defs>
       <path d="M 0 0 
L 0 3.5 
" id="m8f9619524c" style="stroke:#000000;stroke-width:0.8;"/>
      </defs>
      <g>
       <use style="stroke:#000000;stroke-width:0.8;" x="138.436364" xlink:href="#m8f9619524c" y="512.64"/>
      </g>
     </g>
     <g id="text_1">
      <!-- 0 -->
      <g transform="translate(135.255114 527.238438)scale(0.1 -0.1)">
       <defs>
        <path d="M 2034 4250 
Q 1547 4250 1301 3770 
Q 1056 3291 1056 2328 
Q 1056 1369 1301 889 
Q 1547 409 2034 409 
Q 2525 409 2770 889 
Q 3016 1369 3016 2328 
Q 3016 3291 2770 3770 
Q 2525 4250 2034 4250 
z
M 2034 4750 
Q 2819 4750 3233 4129 
Q 3647 3509 3647 2328 
Q 3647 1150 3233 529 
Q 2819 -91 2034 -91 
Q 1250 -91 836 529 
Q 422 1150 422 2328 
Q 422 3509 836 4129 
Q 1250 4750 2034 4750 
z
" id="DejaVuSans-30" transform="scale(0.015625)"/>
       </defs>
       <use xlink:href="#DejaVuSans-30"/>
      </g>
     </g>
    </g>
    <g id="xtick_2">
     <g id="line2d_3">
      <path clip-path="url(#p793fec11fc)" d="M 257.794652 512.64 
L 257.794652 69.12 
" style="fill:none;stroke:#b0b0b0;stroke-linecap:square;stroke-width:0.8;"/>
     </g>
     <g id="line2d_4">
      <g>
       <use style="stroke:#000000;stroke-width:0.8;" x="257.794652" xlink:href="#m8f9619524c" y="512.64"/>
      </g>
     </g>
     <g id="text_2">
      <!-- 50 -->
      <g transform="translate(251.432152 527.238438)scale(0.1 -0.1)">
       <defs>
        <path d="M 691 4666 
L 3169 4666 
L 3169 4134 
L 1269 4134 
L 1269 2991 
Q 1406 3038 1543 3061 
Q 1681 3084 1819 3084 
Q 2600 3084 3056 2656 
Q 3513 2228 3513 1497 
Q 3513 744 3044 326 
Q 2575 -91 1722 -91 
Q 1428 -91 1123 -41 
Q 819 9 494 109 
L 494 744 
Q 775 591 1075 516 
Q 1375 441 1709 441 
Q 2250 441 2565 725 
Q 2881 1009 2881 1497 
Q 2881 1984 2565 2268 
Q 2250 2553 1709 2553 
Q 1456 2553 1204 2497 
Q 953 2441 691 2322 
L 691 4666 
z
" id="DejaVuSans-35" transform="scale(0.015625)"/>
       </defs>
       <use xlink:href="#DejaVuSans-35"/>
       <use x="63.623047" xlink:href="#DejaVuSans-30"/>
      </g>
     </g>
    </g>
    <g id="xtick_3">
     <g id="line2d_5">
      <path clip-path="url(#p793fec11fc)" d="M 377.152941 512.64 
L 377.152941 69.12 
" style="fill:none;stroke:#b0b0b0;stroke-linecap:square;stroke-width:0.8;"/>
     </g>
     <g id="line2d_6">
      <g>
       <use style="stroke:#000000;stroke-width:0.8;" x="377.152941" xlink:href="#m8f9619524c" y="512.64"/>
      </g>
     </g>
     <g id="text_3">
      <!-- 100 -->
      <g transform="translate(367.609191 527.238438)scale(0.1 -0.1)">
       <defs>
        <path d="M 794 531 
L 1825 531 
L 1825 4091 
L 703 3866 
L 703 4441 
L 1819 4666 
L 2450 4666 
L 2450 531 
L 3481 531 
L 3481 0 
L 794 0 
L 794 531 
z
" id="DejaVuSans-31" transform="scale(0.015625)"/>
       </defs>
       <use xlink:href="#DejaVuSans-31"/>
       <use x="63.623047" xlink:href="#DejaVuSans-30"/>
       <use x="127.246094" xlink:href="#DejaVuSans-30"/>
      </g>
     </g>
    </g>
    <g id="xtick_4">
     <g id="line2d_7">
      <path clip-path="url(#p793fec11fc)" d="M 496.51123 512.64 
L 496.51123 69.12 
" style="fill:none;stroke:#b0b0b0;stroke-linecap:square;stroke-width:0.8;"/>
     </g>
     <g id="line2d_8">
      <g>
       <use style="stroke:#000000;stroke-width:0.8;" x="496.51123" xlink:href="#m8f9619524c" y="512.64"/>
      </g>
     </g>
     <g id="text_4">
      <!-- 150 -->
      <g transform="translate(486.96748 527.238438)scale(0.1 -0.1)">
       <use xlink:href="#DejaVuSans-31"/>
       <use x="63.623047" xlink:href="#DejaVuSans-35"/>
       <use x="127.246094" xlink:href="#DejaVuSans-30"/>
      </g>
     </g>
    </g>
    <g id="xtick_5">
     <g id="line2d_9">
      <path clip-path="url(#p793fec11fc)" d="M 615.869519 512.64 
L 615.869519 69.12 
" style="fill:none;stroke:#b0b0b0;stroke-linecap:square;stroke-width:0.8;"/>
     </g>
     <g id="line2d_10">
      <g>
       <use style="stroke:#000000;stroke-width:0.8;" x="615.869519" xlink:href="#m8f9619524c" y="512.64"/>
      </g>
     </g>
     <g id="text_5">
      <!-- 200 -->
      <g transform="translate(606.325769 527.238438)scale(0.1 -0.1)">
       <defs>
        <path d="M 1228 531 
L 3431 531 
L 3431 0 
L 469 0 
L 469 531 
Q 828 903 1448 1529 
Q 2069 2156 2228 2338 
Q 2531 2678 2651 2914 
Q 2772 3150 2772 3378 
Q 2772 3750 2511 3984 
Q 2250 4219 1831 4219 
Q 1534 4219 1204 4116 
Q 875 4013 500 3803 
L 500 4441 
Q 881 4594 1212 4672 
Q 1544 4750 1819 4750 
Q 2544 4750 2975 4387 
Q 3406 4025 3406 3419 
Q 3406 3131 3298 2873 
Q 3191 2616 2906 2266 
Q 2828 2175 2409 1742 
Q 1991 1309 1228 531 
z
" id="DejaVuSans-32" transform="scale(0.015625)"/>
       </defs>
       <use xlink:href="#DejaVuSans-32"/>
       <use x="63.623047" xlink:href="#DejaVuSans-30"/>
       <use x="127.246094" xlink:href="#DejaVuSans-30"/>
      </g>
     </g>
    </g>
    <g id="xtick_6">
     <g id="line2d_11">
      <path clip-path="url(#p793fec11fc)" d="M 735.227807 512.64 
L 735.227807 69.12 
" style="fill:none;stroke:#b0b0b0;stroke-linecap:square;stroke-width:0.8;"/>
     </g>
     <g id="line2d_12">
      <g>
       <use style="stroke:#000000;stroke-width:0.8;" x="735.227807" xlink:href="#m8f9619524c" y="512.64"/>
      </g>
     </g>
     <g id="text_6">
      <!-- 250 -->
      <g transform="translate(725.684057 527.238438)scale(0.1 -0.1)">
       <use xlink:href="#DejaVuSans-32"/>
       <use x="63.623047" xlink:href="#DejaVuSans-35"/>
       <use x="127.246094" xlink:href="#DejaVuSans-30"/>
      </g>
     </g>
    </g>
   </g>
   <g id="matplotlib.axis_2">
    <g id="ytick_1">
     <g id="line2d_13">
      <path clip-path="url(#p793fec11fc)" d="M 108 439.8867 
L 777.6 439.8867 
" style="fill:none;stroke:#b0b0b0;stroke-linecap:square;stroke-width:0.8;"/>
     </g>
     <g id="line2d_14">
      <defs>
       <path d="M 0 0 
L -3.5 0 
" id="mfc8dfb3745" style="stroke:#000000;stroke-width:0.8;"/>
      </defs>
      <g>
       <use style="stroke:#000000;stroke-width:0.8;" x="108" xlink:href="#mfc8dfb3745" y="439.8867"/>
      </g>
     </g>
     <g id="text_7">
      <!-- 0.2 -->
      <g transform="translate(85.096875 443.685919)scale(0.1 -0.1)">
       <defs>
        <path d="M 684 794 
L 1344 794 
L 1344 0 
L 684 0 
L 684 794 
z
" id="DejaVuSans-2e" transform="scale(0.015625)"/>
       </defs>
       <use xlink:href="#DejaVuSans-30"/>
       <use x="63.623047" xlink:href="#DejaVuSans-2e"/>
       <use x="95.410156" xlink:href="#DejaVuSans-32"/>
      </g>
     </g>
    </g>
    <g id="ytick_2">
     <g id="line2d_15">
      <path clip-path="url(#p793fec11fc)" d="M 108 352.2312 
L 777.6 352.2312 
" style="fill:none;stroke:#b0b0b0;stroke-linecap:square;stroke-width:0.8;"/>
     </g>
     <g id="line2d_16">
      <g>
       <use style="stroke:#000000;stroke-width:0.8;" x="108" xlink:href="#mfc8dfb3745" y="352.2312"/>
      </g>
     </g>
     <g id="text_8">
      <!-- 0.4 -->
      <g transform="translate(85.096875 356.030419)scale(0.1 -0.1)">
       <defs>
        <path d="M 2419 4116 
L 825 1625 
L 2419 1625 
L 2419 4116 
z
M 2253 4666 
L 3047 4666 
L 3047 1625 
L 3713 1625 
L 3713 1100 
L 3047 1100 
L 3047 0 
L 2419 0 
L 2419 1100 
L 313 1100 
L 313 1709 
L 2253 4666 
z
" id="DejaVuSans-34" transform="scale(0.015625)"/>
       </defs>
       <use xlink:href="#DejaVuSans-30"/>
       <use x="63.623047" xlink:href="#DejaVuSans-2e"/>
       <use x="95.410156" xlink:href="#DejaVuSans-34"/>
      </g>
     </g>
    </g>
    <g id="ytick_3">
     <g id="line2d_17">
      <path clip-path="url(#p793fec11fc)" d="M 108 264.5757 
L 777.6 264.5757 
" style="fill:none;stroke:#b0b0b0;stroke-linecap:square;stroke-width:0.8;"/>
     </g>
     <g id="line2d_18">
      <g>
       <use style="stroke:#000000;stroke-width:0.8;" x="108" xlink:href="#mfc8dfb3745" y="264.5757"/>
      </g>
     </g>
     <g id="text_9">
      <!-- 0.6 -->
      <g transform="translate(85.096875 268.374919)scale(0.1 -0.1)">
       <defs>
        <path d="M 2113 2584 
Q 1688 2584 1439 2293 
Q 1191 2003 1191 1497 
Q 1191 994 1439 701 
Q 1688 409 2113 409 
Q 2538 409 2786 701 
Q 3034 994 3034 1497 
Q 3034 2003 2786 2293 
Q 2538 2584 2113 2584 
z
M 3366 4563 
L 3366 3988 
Q 3128 4100 2886 4159 
Q 2644 4219 2406 4219 
Q 1781 4219 1451 3797 
Q 1122 3375 1075 2522 
Q 1259 2794 1537 2939 
Q 1816 3084 2150 3084 
Q 2853 3084 3261 2657 
Q 3669 2231 3669 1497 
Q 3669 778 3244 343 
Q 2819 -91 2113 -91 
Q 1303 -91 875 529 
Q 447 1150 447 2328 
Q 447 3434 972 4092 
Q 1497 4750 2381 4750 
Q 2619 4750 2861 4703 
Q 3103 4656 3366 4563 
z
" id="DejaVuSans-36" transform="scale(0.015625)"/>
       </defs>
       <use xlink:href="#DejaVuSans-30"/>
       <use x="63.623047" xlink:href="#DejaVuSans-2e"/>
       <use x="95.410156" xlink:href="#DejaVuSans-36"/>
      </g>
     </g>
    </g>
    <g id="ytick_4">
     <g id="line2d_19">
      <path clip-path="url(#p793fec11fc)" d="M 108 176.9202 
L 777.6 176.9202 
" style="fill:none;stroke:#b0b0b0;stroke-linecap:square;stroke-width:0.8;"/>
     </g>
     <g id="line2d_20">
      <g>
       <use style="stroke:#000000;stroke-width:0.8;" x="108" xlink:href="#mfc8dfb3745" y="176.9202"/>
      </g>
     </g>
     <g id="text_10">
      <!-- 0.8 -->
      <g transform="translate(85.096875 180.719419)scale(0.1 -0.1)">
       <defs>
        <path d="M 2034 2216 
Q 1584 2216 1326 1975 
Q 1069 1734 1069 1313 
Q 1069 891 1326 650 
Q 1584 409 2034 409 
Q 2484 409 2743 651 
Q 3003 894 3003 1313 
Q 3003 1734 2745 1975 
Q 2488 2216 2034 2216 
z
M 1403 2484 
Q 997 2584 770 2862 
Q 544 3141 544 3541 
Q 544 4100 942 4425 
Q 1341 4750 2034 4750 
Q 2731 4750 3128 4425 
Q 3525 4100 3525 3541 
Q 3525 3141 3298 2862 
Q 3072 2584 2669 2484 
Q 3125 2378 3379 2068 
Q 3634 1759 3634 1313 
Q 3634 634 3220 271 
Q 2806 -91 2034 -91 
Q 1263 -91 848 271 
Q 434 634 434 1313 
Q 434 1759 690 2068 
Q 947 2378 1403 2484 
z
M 1172 3481 
Q 1172 3119 1398 2916 
Q 1625 2713 2034 2713 
Q 2441 2713 2670 2916 
Q 2900 3119 2900 3481 
Q 2900 3844 2670 4047 
Q 2441 4250 2034 4250 
Q 1625 4250 1398 4047 
Q 1172 3844 1172 3481 
z
" id="DejaVuSans-38" transform="scale(0.015625)"/>
       </defs>
       <use xlink:href="#DejaVuSans-30"/>
       <use x="63.623047" xlink:href="#DejaVuSans-2e"/>
       <use x="95.410156" xlink:href="#DejaVuSans-38"/>
      </g>
     </g>
    </g>
    <g id="ytick_5">
     <g id="line2d_21">
      <path clip-path="url(#p793fec11fc)" d="M 108 89.2647 
L 777.6 89.2647 
" style="fill:none;stroke:#b0b0b0;stroke-linecap:square;stroke-width:0.8;"/>
     </g>
     <g id="line2d_22">
      <g>
       <use style="stroke:#000000;stroke-width:0.8;" x="108" xlink:href="#mfc8dfb3745" y="89.2647"/>
      </g>
     </g>
     <g id="text_11">
      <!-- 1.0 -->
      <g transform="translate(85.096875 93.063919)scale(0.1 -0.1)">
       <use xlink:href="#DejaVuSans-31"/>
       <use x="63.623047" xlink:href="#DejaVuSans-2e"/>
       <use x="95.410156" xlink:href="#DejaVuSans-30"/>
      </g>
     </g>
    </g>
   </g>
   <g id="line2d_23">
    <path clip-path="url(#p793fec11fc)" d="M 138.436364 492.48 
L 140.823529 492.418802 
L 143.210695 492.235247 
L 145.597861 491.929444 
L 147.985027 491.501581 
L 150.372193 490.951917 
L 152.759358 490.280785 
L 155.146524 489.488593 
L 157.53369 488.575822 
L 162.308021 486.390831 
L 167.082353 483.731119 
L 171.856684 480.603143 
L 176.631016 477.014497 
L 181.405348 472.973895 
L 186.179679 468.491148 
L 190.954011 463.57714 
L 195.728342 458.243802 
L 200.502674 452.504083 
L 205.277005 446.37192 
L 210.051337 439.862201 
L 214.825668 432.990733 
L 219.6 425.774199 
L 224.374332 418.230121 
L 229.148663 410.376817 
L 236.31016 398.058966 
L 243.471658 385.155698 
L 250.633155 371.737488 
L 257.794652 357.87762 
L 267.343316 338.841906 
L 279.279144 314.41462 
L 315.086631 240.494028 
L 324.635294 221.529617 
L 331.796791 207.738162 
L 338.958289 194.400757 
L 346.119786 181.590247 
L 353.281283 169.376597 
L 358.055615 161.59884 
L 362.829947 154.134962 
L 367.604278 147.003084 
L 372.37861 140.220523 
L 377.152941 133.803746 
L 381.927273 127.768335 
L 386.701604 122.128943 
L 391.475936 116.899262 
L 396.250267 112.091991 
L 401.024599 107.718801 
L 405.79893 103.790311 
L 410.573262 100.31606 
L 415.347594 97.304481 
L 420.121925 94.762889 
L 424.896257 92.697453 
L 427.283422 91.844907 
L 429.670588 91.11319 
L 432.057754 90.502745 
L 434.44492 90.013944 
L 436.832086 89.647083 
L 439.219251 89.402386 
L 441.606417 89.28 
L 443.993583 89.28 
L 446.380749 89.402386 
L 448.767914 89.647083 
L 451.15508 90.013944 
L 453.542246 90.502745 
L 455.929412 91.11319 
L 458.316578 91.844907 
L 460.703743 92.697453 
L 465.478075 94.762889 
L 470.252406 97.304481 
L 475.026738 100.31606 
L 479.80107 103.790311 
L 484.575401 107.718801 
L 489.349733 112.091991 
L 494.124064 116.899262 
L 498.898396 122.128943 
L 503.672727 127.768335 
L 508.447059 133.803746 
L 513.22139 140.220523 
L 517.995722 147.003084 
L 522.770053 154.134962 
L 527.544385 161.59884 
L 532.318717 169.376597 
L 539.480214 181.590247 
L 546.641711 194.400757 
L 553.803209 207.738162 
L 560.964706 221.529617 
L 570.513369 240.494028 
L 582.449198 264.865121 
L 620.64385 343.651793 
L 630.192513 362.542022 
L 637.354011 376.26297 
L 644.515508 389.517545 
L 651.677005 402.233354 
L 658.838503 414.340948 
L 663.612834 422.041977 
L 668.387166 429.424523 
L 673.161497 436.470663 
L 677.935829 443.163288 
L 682.71016 449.486148 
L 687.484492 455.423891 
L 692.258824 460.962101 
L 697.033155 466.08733 
L 701.807487 470.787134 
L 706.581818 475.050103 
L 711.35615 478.865885 
L 716.130481 482.225216 
L 720.904813 485.119939 
L 725.679144 487.543025 
L 730.453476 489.488593 
L 732.840642 490.280785 
L 735.227807 490.951917 
L 737.614973 491.501581 
L 740.002139 491.929444 
L 742.389305 492.235247 
L 744.776471 492.418802 
L 747.163636 492.48 
L 747.163636 492.48 
" style="fill:none;stroke:#1f77b4;stroke-linecap:square;stroke-width:1.5;"/>
   </g>
   <g id="line2d_24">
    <path clip-path="url(#p793fec11fc)" d="M 138.436364 492.48 
L 140.823529 492.418802 
L 143.210695 492.235247 
L 145.597861 491.929444 
L 147.985027 491.501581 
L 150.372193 490.951917 
L 152.759358 490.280785 
L 155.146524 489.488593 
L 157.53369 488.575822 
L 162.308021 486.390831 
L 167.082353 483.731119 
L 171.856684 480.603143 
L 176.631016 477.014497 
L 181.405348 472.973895 
L 186.179679 468.491148 
L 190.954011 463.57714 
L 195.728342 458.243802 
L 200.502674 452.504083 
L 205.277005 446.37192 
L 210.051337 439.862201 
L 214.825668 432.990733 
L 219.6 425.774199 
L 224.374332 418.230121 
L 229.148663 410.376817 
L 236.31016 398.058966 
L 243.471658 385.155698 
L 250.633155 371.737488 
L 257.794652 357.87762 
L 267.343316 338.841906 
L 279.279144 314.41462 
L 315.086631 240.494028 
L 324.635294 221.529617 
L 331.796791 207.738162 
L 338.958289 194.400757 
L 346.119786 181.590247 
L 353.281283 169.376597 
L 358.055615 161.59884 
L 362.829947 154.134962 
L 367.604278 147.003084 
L 372.37861 140.220523 
L 377.152941 133.803746 
L 381.927273 127.768335 
L 386.701604 122.128943 
L 391.475936 116.899262 
L 396.250267 112.091991 
L 401.024599 107.718801 
L 405.79893 103.790311 
L 410.573262 100.31606 
L 415.347594 97.304481 
L 420.121925 94.762889 
L 424.896257 92.697453 
L 427.283422 91.844907 
L 429.670588 91.11319 
L 432.057754 90.502745 
L 434.44492 90.013944 
L 436.832086 89.647083 
L 439.219251 89.402386 
L 441.606417 89.28 
L 443.993583 89.28 
L 446.380749 89.402386 
L 448.767914 89.647083 
L 451.15508 90.013944 
L 453.542246 90.502745 
L 455.929412 91.11319 
L 458.316578 91.844907 
L 460.703743 92.697453 
L 465.478075 94.762889 
L 470.252406 97.304481 
L 475.026738 100.31606 
L 479.80107 103.790311 
L 484.575401 107.718801 
L 489.349733 112.091991 
L 494.124064 116.899262 
L 498.898396 122.128943 
L 503.672727 127.768335 
L 508.447059 133.803746 
L 513.22139 140.220523 
L 517.995722 147.003084 
L 522.770053 154.134962 
L 527.544385 161.59884 
L 532.318717 169.376597 
L 539.480214 181.590247 
L 546.641711 194.400757 
L 553.803209 207.738162 
L 560.964706 221.529617 
L 570.513369 240.494028 
L 582.449198 264.865121 
L 620.64385 343.651793 
L 630.192513 362.542022 
L 637.354011 376.26297 
L 644.515508 389.517545 
L 651.677005 402.233354 
L 658.838503 414.340948 
L 663.612834 422.041977 
L 668.387166 429.424523 
L 673.161497 436.470663 
L 677.935829 443.163288 
L 682.71016 449.486148 
L 687.484492 455.423891 
L 692.258824 460.962101 
L 697.033155 466.08733 
L 701.807487 470.787134 
L 706.581818 475.050103 
L 711.35615 478.865885 
L 716.130481 482.225216 
L 720.904813 485.119939 
L 725.679144 487.543025 
L 730.453476 489.488593 
L 732.840642 490.280785 
L 735.227807 490.951917 
L 737.614973 491.501581 
L 740.002139 491.929444 
L 742.389305 492.235247 
L 744.776471 492.418802 
L 747.163636 492.48 
L 747.163636 492.48 
" style="fill:none;stroke:#ff7f0e;stroke-linecap:square;stroke-width:1.5;"/>
   </g>
   <g id="line2d_25">
    <path clip-path="url(#p793fec11fc)" d="M 138.436364 492.48 
L 140.823529 492.418802 
L 143.210695 492.235247 
L 145.597861 491.929444 
L 147.985027 491.501581 
L 150.372193 490.951917 
L 152.759358 490.280785 
L 155.146524 489.488593 
L 157.53369 488.575822 
L 162.308021 486.390831 
L 167.082353 483.731119 
L 171.856684 480.603143 
L 176.631016 477.014497 
L 181.405348 472.973895 
L 186.179679 468.491148 
L 190.954011 463.57714 
L 195.728342 458.243802 
L 200.502674 452.504083 
L 205.277005 446.37192 
L 210.051337 439.862201 
L 214.825668 432.990733 
L 219.6 425.774199 
L 224.374332 418.230121 
L 229.148663 410.376817 
L 236.31016 398.058966 
L 243.471658 385.155698 
L 250.633155 371.737488 
L 257.794652 357.87762 
L 267.343316 338.841906 
L 279.279144 314.41462 
L 315.086631 240.494028 
L 324.635294 221.529617 
L 331.796791 207.738162 
L 338.958289 194.400757 
L 346.119786 181.590247 
L 353.281283 169.376597 
L 358.055615 161.59884 
L 362.829947 154.134962 
L 367.604278 147.003084 
L 372.37861 140.220523 
L 377.152941 133.803746 
L 381.927273 127.768335 
L 386.701604 122.128943 
L 391.475936 116.899262 
L 396.250267 112.091991 
L 401.024599 107.718801 
L 405.79893 103.790311 
L 410.573262 100.31606 
L 415.347594 97.304481 
L 420.121925 94.762889 
L 424.896257 92.697453 
L 427.283422 91.844907 
L 429.670588 91.11319 
L 432.057754 90.502745 
L 434.44492 90.013944 
L 436.832086 89.647083 
L 439.219251 89.402386 
L 441.606417 89.28 
L 443.993583 89.28 
L 446.380749 89.402386 
L 448.767914 89.647083 
L 451.15508 90.013944 
L 453.542246 90.502745 
L 455.929412 91.11319 
L 458.316578 91.844907 
L 460.703743 92.697453 
L 465.478075 94.762889 
L 470.252406 97.304481 
L 475.026738 100.31606 
L 479.80107 103.790311 
L 484.575401 107.718801 
L 489.349733 112.091991 
L 494.124064 116.899262 
L 498.898396 122.128943 
L 503.672727 127.768335 
L 508.447059 133.803746 
L 513.22139 140.220523 
L 517.995722 147.003084 
L 522.770053 154.134962 
L 527.544385 161.59884 
L 532.318717 169.376597 
L 539.480214 181.590247 
L 546.641711 194.400757 
L 553.803209 207.738162 
L 560.964706 221.529617 
L 570.513369 240.494028 
L 582.449198 264.865121 
L 620.64385 343.651793 
L 630.192513 362.542022 
L 637.354011 376.26297 
L 644.515508 389.517545 
L 651.677005 402.233354 
L 658.838503 414.340948 
L 663.612834 422.041977 
L 668.387166 429.424523 
L 673.161497 436.470663 
L 677.935829 443.163288 
L 682.71016 449.486148 
L 687.484492 455.423891 
L 692.258824 460.962101 
L 697.033155 466.08733 
L 701.807487 470.787134 
L 706.581818 475.050103 
L 711.35615 478.865885 
L 716.130481 482.225216 
L 720.904813 485.119939 
L 725.679144 487.543025 
L 730.453476 489.488593 
L 732.840642 490.280785 
L 735.227807 490.951917 
L 737.614973 491.501581 
L 740.002139 491.929444 
L 742.389305 492.235247 
L 744.776471 492.418802 
L 747.163636 492.48 
L 747.163636 492.48 
" style="fill:none;stroke:#2ca02c;stroke-linecap:square;stroke-width:1.5;"/>
   </g>
   <g id="patch_3">
    <path d="M 108 512.64 
L 108 69.12 
" style="fill:none;stroke:#000000;stroke-linecap:square;stroke-linejoin:miter;stroke-width:0.8;"/>
   </g>
   <g id="patch_4">
    <path d="M 777.6 512.64 
L 777.6 69.12 
" style="fill:none;stroke:#000000;stroke-linecap:square;stroke-linejoin:miter;stroke-width:0.8;"/>
   </g>
   <g id="patch_5">
    <path d="M 108 512.64 
L 777.6 512.64 
" style="fill:none;stroke:#000000;stroke-linecap:square;stroke-linejoin:miter;stroke-width:0.8;"/>
   </g>
   <g id="patch_6">
    <path d="M 108 69.12 
L 777.6 69.12 
" style="fill:none;stroke:#000000;stroke-linecap:square;stroke-linejoin:miter;stroke-width:0.8;"/>
   </g>
  </g>
 </g>
 <defs>
  <clipPath id="p793fec11fc">
   <rect height="443.52" width="669.6" x="108" y="69.12"/>
  </clipPath>
 </defs>
</svg>
